<svg xmlns="http://www.w3.org/2000/svg" width="1536" height="960" viewBox="0 0 1536 960">
<g fill="none" stroke="red" stroke-width="1.5">
<line x1="242.994" y1="657.000" x2="243.011" y2="305.000" />
<line x1="243.000" y1="657.993" x2="852.000" y2="658.003" />
<line x1="852.989" y1="658.000" x2="853.006" y2="306.000" />
<line x1="244.000" y1="304.997" x2="853.000" y2="305.007" />
<ellipse cx="931.028" cy="240.525" rx="62.539" ry="142.185" transform="rotate(90.003 931.028 240.525)" />
<line x1="168.714" y1="395.345" x2="283.794" y2="156.866" />
<path d="M 411.000 175.000 C 411.500 176.000, 385.833 170.500, 414.000 181.000 C 442.167 191.500, 539.833 226.333, 580.000 238.000 C 620.167 249.667, 641.167 250.333, 655.000 251.000 C 668.833 251.667, 662.500 246.833, 663.000 242.000 C 663.500 237.167, 671.000 242.500, 658.000 222.000 C 645.000 201.500, 597.167 136.167, 585.000 119.000" />
</g></svg>