<svg xmlns="http://www.w3.org/2000/svg" width="1536" height="960" viewBox="0 0 1536 960">
<g fill="none" stroke="red" stroke-width="1.5">
<line x1="242.994" y1="657.000" x2="243.011" y2="305.000" />
<line x1="243.000" y1="657.993" x2="852.000" y2="658.003" />
<line x1="852.989" y1="658.000" x2="853.006" y2="306.000" />
<line x1="244.000" y1="304.997" x2="853.000" y2="305.007" />
<ellipse cx="931.028" cy="240.525" rx="62.539" ry="142.185" transform="rotate(90.003 931.028 240.525)" />
<line x1="165.223" y1="393.142" x2="280.317" y2="154.670" />
<path d="M 585.000 119.000 C 596.333 136.000, 641.500 199.667, 653.000 221.000 C 664.500 242.333, 695.000 254.333, 654.000 247.000 C 613.000 239.667, 417.667 178.000, 407.000 177.000 C 396.333 176.000, 548.667 228.667, 590.000 241.000 C 631.333 253.333, 644.000 254.833, 655.000 251.000 C 666.000 247.167, 667.500 239.833, 656.000 218.000 C 644.500 196.167, 597.667 136.333, 586.000 120.000" />
</g></svg>