<svg xmlns="http://www.w3.org/2000/svg" width="640" height="480" viewBox="0 0 640 480">
<g fill="none" stroke="red" stroke-width="1.5">
<path d="M 40.000 299.000 C 45.074 301.008, 59.475 307.049, 70.444 311.046 C 81.413 315.042, 94.439 319.158, 105.814 322.978 C 117.189 326.798, 127.315 330.159, 138.696 333.967 C 150.076 337.776, 162.712 342.028, 174.094 345.830 C 185.477 349.633, 195.598 353.006, 206.992 356.780 C 218.387 360.554, 230.627 364.603, 242.462 368.473 C 254.297 372.343, 272.077 378.079, 278.000 380.000" />
<path d="M 506.173 392.105 A 100.753 100.753 0 1 1 356.085 262.103" />
<path d="M 506.460 388.694 A 99.167 99.167 0 1 1 357.187 263.227" />
<ellipse cx="419.988" cy="160.001" rx="70.893" ry="120.843" transform="rotate(115.037 419.988 160.001)" />
<circle cx="150.000" cy="150.000" r="80.398" />
</g></svg>