<svg xmlns="http://www.w3.org/2000/svg" width="1536" height="960" viewBox="0 0 1536 960">
<g fill="none" stroke="red" stroke-width="1.5">
<path d="M 1264.000 391.000 C 1260.167 375.667, 1234.667 352.833, 1223.000 343.000 C 1211.333 333.167, 1204.667 328.333, 1194.000 332.000 C 1183.333 335.667, 1172.667 346.667, 1159.000 365.000 C 1145.333 383.333, 1104.500 427.333, 1112.000 442.000 C 1119.500 456.667, 1184.333 451.667, 1204.000 453.000 C 1223.667 454.333, 1223.000 453.000, 1230.000 450.000 C 1237.000 447.000, 1240.333 444.833, 1246.000 435.000 C 1251.667 425.167, 1267.833 406.333, 1264.000 391.000 Z" />
<ellipse cx="655.022" cy="518.522" rx="346.543" ry="412.048" transform="rotate(89.994 655.022 518.522)" />
<line x1="548.704" y1="483.110" x2="634.444" y2="713.207" />
<line x1="635.000" y1="713.000" x2="913.000" y2="713.000" />
<line x1="913.606" y1="713.226" x2="998.701" y2="484.889" />
<line x1="775.681" y1="342.509" x2="1000.173" y2="483.127" />
<line x1="548.703" y1="482.525" x2="775.280" y2="340.848" />
</g></svg>