<svg xmlns="http://www.w3.org/2000/svg" width="640" height="480" viewBox="0 0 640 480">
<g fill="none" stroke="red" stroke-width="1.5">
<line x1="354.000" y1="261.000" x2="342.000" y2="273.000" />
<line x1="317.000" y1="331.000" x2="317.000" y2="348.000" />
<line x1="318.000" y1="349.000" x2="318.000" y2="356.000" />
<line x1="340.000" y1="405.000" x2="353.000" y2="418.000" />
<line x1="409.000" y1="442.000" x2="430.000" y2="442.000" />
<line x1="431.000" y1="441.000" x2="438.000" y2="441.000" />
<line x1="485.000" y1="420.000" x2="492.000" y2="413.000" />
<line x1="493.000" y1="412.000" x2="500.000" y2="405.000" />
<line x1="496.000" y1="401.000" x2="481.000" y2="416.000" />
<line x1="430.000" y1="437.000" x2="410.000" y2="437.000" />
<line x1="360.000" y1="417.000" x2="344.000" y2="401.000" />
<line x1="322.000" y1="348.000" x2="322.000" y2="332.000" />
<line x1="343.000" y1="280.000" x2="358.000" y2="265.000" />
<line x1="328.000" y1="181.000" x2="346.000" y2="199.000" />
<line x1="443.000" y1="242.000" x2="450.000" y2="242.000" />
<line x1="451.000" y1="243.000" x2="478.000" y2="243.000" />
<line x1="479.000" y1="242.000" x2="486.000" y2="242.000" />
<line x1="535.000" y1="196.000" x2="535.000" y2="188.000" />
<line x1="512.000" y1="139.000" x2="494.000" y2="121.000" />
<line x1="396.000" y1="77.000" x2="388.000" y2="77.000" />
<line x1="387.000" y1="76.000" x2="364.000" y2="76.000" />
<line x1="97.000" y1="86.000" x2="86.000" y2="97.000" />
<line x1="67.000" y1="143.000" x2="67.000" y2="157.000" />
<line x1="86.000" y1="203.000" x2="97.000" y2="214.000" />
<line x1="141.000" y1="232.000" x2="159.000" y2="232.000" />
<line x1="204.000" y1="213.000" x2="214.000" y2="203.000" />
<line x1="232.000" y1="159.000" x2="232.000" y2="141.000" />
<line x1="214.000" y1="97.000" x2="204.000" y2="87.000" />
<line x1="157.000" y1="67.000" x2="144.000" y2="67.000" />
</g></svg>