<svg xmlns="http://www.w3.org/2000/svg" width="1536" height="960" viewBox="0 0 1536 960">
<g fill="none" stroke="red" stroke-width="1.5">
<line x1="242.994" y1="657.000" x2="243.011" y2="305.000" />
<line x1="243.000" y1="657.993" x2="852.000" y2="658.003" />
<line x1="852.989" y1="658.000" x2="853.006" y2="306.000" />
<line x1="244.000" y1="304.997" x2="853.000" y2="305.007" />
<ellipse cx="931.028" cy="240.525" rx="62.539" ry="142.185" transform="rotate(90.003 931.028 240.525)" />
<line x1="165.223" y1="393.142" x2="280.317" y2="154.670" />
<path d="M 663.000 242.000 C 660.333 235.500, 660.000 223.500, 647.000 203.000 C 634.000 182.500, 584.000 116.000, 585.000 119.000 C 586.000 122.000, 641.500 199.667, 653.000 221.000 C 664.500 242.333, 663.833 244.167, 654.000 247.000 C 644.167 249.833, 635.167 249.667, 594.000 238.000 C 552.833 226.333, 438.167 187.167, 407.000 177.000" />
</g></svg>