<svg xmlns="http://www.w3.org/2000/svg" width="1536" height="960" viewBox="0 0 1536 960">
<g fill="none" stroke="red" stroke-width="1.5">
<line x1="242.994" y1="657.000" x2="243.011" y2="305.000" />
<line x1="243.000" y1="657.993" x2="852.000" y2="658.003" />
<line x1="852.989" y1="658.000" x2="853.006" y2="306.000" />
<line x1="244.000" y1="304.997" x2="853.000" y2="305.007" />
<ellipse cx="931.028" cy="240.525" rx="62.539" ry="142.185" transform="rotate(90.003 931.028 240.525)" />
<line x1="165.223" y1="393.142" x2="280.317" y2="154.670" />
<path d="M 411.000 175.000 C 438.700 185.285, 541.123 224.227, 577.203 236.709 C 613.283 249.191, 614.727 247.622, 627.479 249.891 C 640.231 252.159, 647.930 252.320, 653.713 250.321 C 659.495 248.321, 661.610 242.704, 662.173 237.892 C 662.737 233.079, 669.958 241.261, 657.095 221.446 C 644.233 201.631, 597.016 136.074, 585.000 119.000" />
</g></svg>